<svg xmlns="http://www.w3.org/2000/svg" width="41" height="58.571" viewBox="0 0 41 58.571">
  <path id="ic_lightbulb_outline_24px" d="M16.714,57.643a2.937,2.937,0,0,0,2.929,2.929H31.357a2.937,2.937,0,0,0,2.929-2.929V54.714H16.714ZM25.5,2A20.491,20.491,0,0,0,13.786,39.31v6.619a2.937,2.937,0,0,0,2.929,2.929H34.286a2.937,2.937,0,0,0,2.929-2.929V39.31A20.491,20.491,0,0,0,25.5,2Zm8.346,32.507-2.489,1.757V43H19.643V36.264l-2.489-1.757a14.643,14.643,0,1,1,16.693,0Z" transform="translate(-5 -2)" fill="#e97526"/>
</svg>
