<svg xmlns="http://www.w3.org/2000/svg" width="24.608" height="23.525" viewBox="0 0 24.608 23.525">
  <path id="Path_126" data-name="Path 126" d="M32.737,32V22.9c0-4.875-2.6-7.145-6.073-7.145a5.238,5.238,0,0,0-4.755,2.621V16.126H16.634c.07,1.49,0,15.872,0,15.872h5.276V23.134a3.618,3.618,0,0,1,.174-1.286,2.887,2.887,0,0,1,2.706-1.929c1.91,0,2.673,1.455,2.673,3.589V32l5.276,0ZM11.077,13.96a2.751,2.751,0,1,0,.036-5.485,2.75,2.75,0,1,0-.067,5.485ZM13.714,32V16.126H8.438V32Z" transform="translate(-8.129 -8.475)" fill="#e97526"/>
</svg>
