<svg xmlns="http://www.w3.org/2000/svg" xmlns:xlink="http://www.w3.org/1999/xlink" width="811.596" height="529.122" viewBox="0 0 811.596 529.122">
  <defs>
    <linearGradient id="linear-gradient" x1="0.5" y1="1" x2="0.5" gradientUnits="objectBoundingBox">
      <stop offset="0" stop-color="gray" stop-opacity="0.251"/>
      <stop offset="0.54" stop-color="gray" stop-opacity="0.122"/>
      <stop offset="1" stop-color="gray" stop-opacity="0.102"/>
    </linearGradient>
    <linearGradient id="linear-gradient-2" y2="0" xlink:href="#linear-gradient"/>
    <linearGradient id="linear-gradient-4" x1="16.117" x2="16.117" y2="0" xlink:href="#linear-gradient"/>
  </defs>
  <g id="Group_63" data-name="Group 63" transform="translate(-0.006 -71.389)">
    <g id="Group_33" data-name="Group 33" transform="translate(700.644 120.519)" opacity="0.2">
      <path id="Path_183" data-name="Path 183" d="M985.15,417.392s3.9-51.831,33.194-79.994a78.76,78.76,0,0,0,23.432-43.964,132.489,132.489,0,0,0,1.625-24.164" transform="translate(-966.032 -236.431)" fill="none" stroke="#535461" stroke-miterlimit="10" stroke-width="2"/>
      <path id="Path_184" data-name="Path 184" d="M1074.529,243.849c-2.162,5.689-18.775,18.377-18.775,18.377s-4.064-20.49-1.918-26.2a11.066,11.066,0,1,1,20.7,7.827Z" transform="translate(-978.774 -228.866)" fill="#272626"/>
      <path id="Path_185" data-name="Path 185" d="M1079.829,289.608c-4.917,3.625-25.749,5.218-25.749,5.218s7.713-19.417,12.631-23.042a11.062,11.062,0,1,1,13.118,17.816Z" transform="translate(-978.936 -236.498)" fill="#272626"/>
      <path id="Path_186" data-name="Path 186" d="M1053.943,355.346c-6.08.642-24.863-8.494-24.863-8.494s16.459-12.866,22.53-13.517a11.067,11.067,0,1,1,2.333,22.01Z" transform="translate(-974.256 -248.413)" fill="#272626"/>
      <path id="Path_187" data-name="Path 187" d="M1022.674,401.088c-5.885,1.626-25.944-4.17-25.944-4.17s14.045-15.443,19.93-17.125a11.064,11.064,0,0,1,6.015,21.295Z" transform="translate(-968.2 -257.044)" fill="#272626"/>
      <path id="Path_188" data-name="Path 188" d="M1026.588,288.259c2.593,5.535,20.133,16.882,20.133,16.882s2.5-20.742-.1-26.277a11.064,11.064,0,0,0-20.035,9.4Z" transform="translate(-973.593 -237.034)" fill="#272626"/>
      <path id="Path_189" data-name="Path 189" d="M990.548,341.479c4.129,4.5,24.262,10.087,24.262,10.087s-3.828-20.539-7.957-25.042a11.065,11.065,0,0,0-16.313,14.955Z" transform="translate(-966.496 -246.478)" fill="#272626"/>
      <path id="Path_190" data-name="Path 190" d="M963.393,398.914c3.308,5.137,22.213,14.037,22.213,14.037s-.3-20.889-3.609-26.009a11.066,11.066,0,0,0-18.6,11.989Z" transform="translate(-961.628 -257.511)" fill="#272626"/>
    </g>
    <path id="Path_191" data-name="Path 191" d="M164.14,87.83V462.523H766.25V87.83Z" transform="translate(-30.728 -16.441)" fill="url(#linear-gradient)"/>
    <rect id="Rectangle_125" data-name="Rectangle 125" width="589.39" height="28.618" transform="translate(139.776 75.347)" fill="#f6f7f9"/>
    <g id="Group_34" data-name="Group 34" transform="translate(139.776 75.347)" opacity="0.2">
      <rect id="Rectangle_126" data-name="Rectangle 126" width="589.39" height="28.618" fill="#e97526"/>
    </g>
    <rect id="Rectangle_127" data-name="Rectangle 127" width="589.39" height="338.159" transform="translate(139.776 103.965)" fill="#f5f5f5"/>
    <circle id="Ellipse_44" data-name="Ellipse 44" cx="6.364" cy="6.364" r="6.364" transform="translate(147.546 83.117)" fill="#f6f7f9"/>
    <circle id="Ellipse_45" data-name="Ellipse 45" cx="6.364" cy="6.364" r="6.364" transform="translate(164.501 83.117)" fill="#f6f7f9"/>
    <circle id="Ellipse_46" data-name="Ellipse 46" cx="6.364" cy="6.364" r="6.364" transform="translate(181.463 83.117)" fill="#f6f7f9"/>
    <g id="Group_35" data-name="Group 35" transform="translate(160.266 146.019)" opacity="0.2">
      <rect id="Rectangle_128" data-name="Rectangle 128" width="303.177" height="21.905" fill="#e97526"/>
    </g>
    <g id="Group_36" data-name="Group 36" transform="translate(541.177 146.019)" opacity="0.2">
      <rect id="Rectangle_129" data-name="Rectangle 129" width="159.005" height="21.905" fill="#e97526"/>
    </g>
    <g id="Group_37" data-name="Group 37" transform="translate(219.274 252.729)" opacity="0.2">
      <rect id="Rectangle_130" data-name="Rectangle 130" width="21.197" height="69.964" transform="translate(0 100.354)" fill="#e97526"/>
      <rect id="Rectangle_131" data-name="Rectangle 131" width="21.197" height="120.138" transform="translate(40.989 50.173)" fill="#e97526"/>
      <rect id="Rectangle_132" data-name="Rectangle 132" width="21.197" height="170.311" transform="translate(81.977)" fill="#e97526"/>
      <rect id="Rectangle_133" data-name="Rectangle 133" width="21.197" height="154.063" transform="translate(122.966 16.256)" fill="#e97526"/>
      <rect id="Rectangle_134" data-name="Rectangle 134" width="21.197" height="106.003" transform="translate(163.955 64.307)" fill="#e97526"/>
    </g>
    <g id="Group_38" data-name="Group 38" transform="translate(540.828 215.983)" opacity="0.2">
      <rect id="Rectangle_135" data-name="Rectangle 135" width="159.005" height="195.401" fill="#e97526"/>
    </g>
    <path id="Path_192" data-name="Path 192" d="M1071.624,496.8c-1.016-5.169-2.967-10.225-3.015-15.492-.073-8.55,4.478-18.483-1.5-24.8-1.365-1.439-3.194-2.512-4.21-4.194a9.231,9.231,0,0,1-1.057-4.73c-.1-9.973,5.4-20.1,2.1-29.553a10.045,10.045,0,0,0-3.771-5.259,10.941,10.941,0,0,0-6.4-1.431c-2.1,0-4.324.236-6.5.276a14.054,14.054,0,0,1-3.649-.48c-2.52-.715-4.657-2.365-7.152-3.178a11.687,11.687,0,0,0-4.064-.561c-5.462-.179-10.452,3.454-14.338,6.974a53.538,53.538,0,0,1-6.137,4.462c.325-.228-7.583,5.2-4.609,5.259a10.355,10.355,0,0,1,5.885,2.048,15.9,15.9,0,0,0,.813,18.434c-1.292-1.268-2.723-2.658-4.186-4.064-4.357-4.283-10.444-10.03-13.305-11.6A94.171,94.171,0,0,1,985.1,420.89s-8.737,4.877-6.047,11.647a27.193,27.193,0,0,1,3.747,1.471,7.016,7.016,0,0,0,.512,2.625,28.935,28.935,0,0,1,7.762,3.8,13.255,13.255,0,0,1,.748,1.162c1.162,2.032,4.779,5.73,9.2,9.843,3.1,3.113,7.193,6.836,11.265,10.42-1.227,2.438-2.52,4.877-2.747,7.315a9.01,9.01,0,0,1-.919-.423c-6.047-3.251-20.157-2.91-20.157-2.91s-11.761-6.145-14.11-20.051c0,0-2.349-8.412-1.682-10.672h-.041l.3-.065,2.82-5.112a2.26,2.26,0,0,0-1.853-3.316c-13.752-1.235-14.4,11.379-14.4,11.379h.122l-.041.106c1.682,8.087,3.024,7.437,2.69,13.907l5.372,14.232s.333,4.877,10.079,11.322,20.832,16.5,20.832,16.5-5.876,3.072-3.7,17.142c2.666,17.2-1.341,41.728-1.341,41.728v15.849l.748-.2c-.1.528-.187,1.089-.284,1.7a89.245,89.245,0,0,0-.463,24.066c2.016,16.825,10.079,39.826,10.079,39.826s3.024,8.087,3.7,14.557a13.417,13.417,0,0,0,.861,3.739,29.4,29.4,0,0,1,2.357,11.225,79.035,79.035,0,0,0,5.177,28.374c3.406,8.648,4.674,13.72,5.047,16.678-2.438,3.154-5.576,6.592-8.071,6.933-4.706.65-13.777,1.292-7.73,9.054a5.53,5.53,0,0,0,.7.74c-4.592.732-9.64,2.341-4.73,8.64,6.047,7.762,41.655,4.2,41.655,4.2s.228-4.316,0-9.054c2.5-.171,4.064-.325,4.064-.325s1.008-18.759-3.357-21.027a9.432,9.432,0,0,0-2.357.569c-.471-2.593-.813-5.82-1.057-8.2l1.731-.13v-.13h.106V671.756s-2.016-17.467-9.4-25.2a15.7,15.7,0,0,1-2.438-3.251l-.1-.2c.049-2.211.049-5.194,0-8.615l.106-.187c.13-.211.26-.4.382-.569a7.031,7.031,0,0,1,.553-.65l.106-.138h0s4.064-4.877,17.808-35.584c8.4-18.743,6.177-29.26,3.17-34.681-.634-2.438-1.959-7.9-3.617-17.255a67.656,67.656,0,0,1-.967-12.021,24.173,24.173,0,0,0,6.372.715,21.636,21.636,0,0,0,9.753-2.081c-2.195-3.2-4.487-6.957-3.381-10.639,1.252-4.194,6.21-6.12,9.071-9.5C1072.55,507.809,1072.639,501.973,1071.624,496.8Z" transform="translate(-260.586 -141.77)" fill="url(#linear-gradient-2)"/>
    <path id="Path_193" data-name="Path 193" d="M991.268,428.25s-8.339,4.812-5.771,11.55c0,0,8.664,2.568,12.192,8.981s30.8,29.512,30.8,29.512l19.913-9.94s-6.917-9.233-28.8-15.687c0,0-12.9-13.817-17.394-16.394A97.311,97.311,0,0,1,991.268,428.25Z" transform="translate(-265.361 -145.675)" fill="#797c9c"/>
    <path id="Path_194" data-name="Path 194" d="M996.268,433.25s-8.339,4.812-5.771,11.55c0,0,8.664,2.568,12.192,8.981s30.8,29.512,30.8,29.512l19.913-9.94s-6.917-9.233-28.8-15.687c0,0-12.9-13.817-17.394-16.394A97.307,97.307,0,0,1,996.268,433.25Z" transform="translate(-266.297 -146.611)" opacity="0.05"/>
    <path id="Path_195" data-name="Path 195" d="M112.3,723.482s-46.865,28.277,39.526,71.809c0,0,19.035-35.34-2.008-64.153A28.374,28.374,0,0,0,113,723.076Z" transform="translate(-99.6 -200.194)" fill="#e97526"/>
    <path id="Path_196" data-name="Path 196" d="M115.88,723.67s40.111,30.683,39.014,72.4" transform="translate(-102.647 -200.983)" fill="none" stroke="#535461" stroke-miterlimit="10" stroke-width="1"/>
    <path id="Path_197" data-name="Path 197" d="M165.307,776.729s-14.687-49.9,2.731-86.562a78.759,78.759,0,0,0,6.372-49.409,132.483,132.483,0,0,0-7-23.189" transform="translate(-110.817 -181.119)" fill="none" stroke="#535461" stroke-miterlimit="10" stroke-width="2"/>
    <path id="Path_198" data-name="Path 198" d="M177.514,586.451c0,6.112-11.062,23.831-11.062,23.831s-11.062-17.719-11.062-23.831a11.066,11.066,0,0,1,22.132,0Z" transform="translate(-110.044 -173.221)" fill="#272626"/>
    <path id="Path_199" data-name="Path 199" d="M199.988,626.748c-3.324,5.129-22.238,13.988-22.238,13.988s.341-20.889,3.666-26.009a11.064,11.064,0,1,1,18.572,12.029Z" transform="translate(-114.23 -179.641)" fill="#272626"/>
    <path id="Path_200" data-name="Path 200" d="M198.081,697.006c-5.454,2.755-26.261.813-26.261.813s10.843-17.881,16.3-20.612a11.065,11.065,0,1,1,9.965,19.759Z" transform="translate(-113.12 -192.062)" fill="#e97526"/>
    <path id="Path_201" data-name="Path 201" d="M185.331,750.922c-4.877,3.633-25.741,5.275-25.741,5.275s7.665-19.434,12.582-23.067a11.065,11.065,0,0,1,13.159,17.792Z" transform="translate(-110.83 -202.348)" fill="#272626"/>
    <path id="Path_202" data-name="Path 202" d="M148.392,644.971c4.381,4.259,24.806,8.672,24.806,8.672s-5-20.32-9.388-24.546a11.073,11.073,0,1,0-15.443,15.874Z" transform="translate(-108.101 -182.69)" fill="#e97526"/>
    <path id="Path_203" data-name="Path 203" d="M133.508,707.486c5.454,2.755,26.261.813,26.261.813s-10.843-17.881-16.3-20.612a11.065,11.065,0,0,0-9.965,19.759Z" transform="translate(-104.808 -194.024)" fill="#272626"/>
    <path id="Path_204" data-name="Path 204" d="M128.427,770.822c4.877,3.633,25.741,5.275,25.741,5.275s-7.665-19.434-12.582-23.067a11.065,11.065,0,1,0-13.159,17.792Z" transform="translate(-104.156 -206.073)" fill="#272626"/>
    <path id="Path_212" data-name="Path 212" d="M207.118,777.9s-14.687-49.864,2.755-86.561a78.759,78.759,0,0,0,6.372-49.409,132.482,132.482,0,0,0-7-23.189" transform="translate(-118.645 -181.338)" fill="none" stroke="#535461" stroke-miterlimit="10" stroke-width="2"/>
    <path id="Path_213" data-name="Path 213" d="M219.324,587.651c0,6.112-11.062,23.831-11.062,23.831S197.2,593.763,197.2,587.651a11.066,11.066,0,0,1,22.132,0Z" transform="translate(-117.871 -173.446)" fill="#272626"/>
    <path id="Path_214" data-name="Path 214" d="M241.808,627.908c-3.324,5.129-22.238,13.988-22.238,13.988s.341-20.889,3.666-26.009a11.064,11.064,0,1,1,18.572,12.029Z" transform="translate(-122.059 -179.858)" fill="#e97526"/>
    <path id="Path_215" data-name="Path 215" d="M239.891,698.166c-5.454,2.755-26.261.813-26.261.813s10.843-17.881,16.3-20.612a11.083,11.083,0,1,1,9.965,19.8Z" transform="translate(-120.947 -192.279)" fill="#272626"/>
    <path id="Path_216" data-name="Path 216" d="M227.141,752.092c-4.877,3.633-25.741,5.275-25.741,5.275s7.665-19.434,12.582-23.067a11.065,11.065,0,0,1,13.159,17.792Z" transform="translate(-118.657 -202.567)" fill="#e97526"/>
    <path id="Path_217" data-name="Path 217" d="M190.222,646.131c4.381,4.259,24.806,8.672,24.806,8.672s-5-20.32-9.388-24.546A11.073,11.073,0,1,0,190.2,646.131Z" transform="translate(-115.933 -182.907)" fill="#e97526"/>
    <path id="Path_218" data-name="Path 218" d="M175.318,708.646c5.454,2.755,26.261.813,26.261.813s-10.843-17.881-16.3-20.612a11.065,11.065,0,1,0-9.965,19.759Z" transform="translate(-112.635 -194.241)" fill="#272626"/>
    <path id="Path_219" data-name="Path 219" d="M170.237,771.992c4.877,3.633,25.741,5.275,25.741,5.275S188.313,757.833,183.4,754.2a11.065,11.065,0,0,0-13.159,17.792Z" transform="translate(-111.983 -206.292)" fill="#e97526"/>
    <rect id="Rectangle_136" data-name="Rectangle 136" width="774.583" height="5.689" transform="translate(19.947 594.822)" fill="#272626"/>
    <rect id="Rectangle_137" data-name="Rectangle 137" width="164.158" height="201.733" transform="translate(567.511 277.023)" fill="url(#linear-gradient)"/>
    <rect id="Rectangle_138" data-name="Rectangle 138" width="159.005" height="195.401" transform="translate(570.088 280.193)" fill="#e97526" opacity="0.89"/>
    <rect id="Rectangle_139" data-name="Rectangle 139" width="32.511" height="32.511" transform="translate(580.768 297.343)" fill="#e8eaf1"/>
    <rect id="Rectangle_140" data-name="Rectangle 140" width="115.415" height="6.502" transform="translate(597.024 349.361)" fill="#e8eaf1"/>
    <rect id="Rectangle_141" data-name="Rectangle 141" width="115.415" height="6.502" transform="translate(597.024 363.178)" fill="#e8eaf1"/>
    <rect id="Rectangle_142" data-name="Rectangle 142" width="115.415" height="6.502" transform="translate(597.024 376.996)" fill="#e8eaf1"/>
    <rect id="Rectangle_143" data-name="Rectangle 143" width="115.415" height="6.502" transform="translate(597.024 390.813)" fill="#e8eaf1"/>
    <rect id="Rectangle_144" data-name="Rectangle 144" width="115.415" height="6.502" transform="translate(597.024 404.63)" fill="#e8eaf1"/>
    <rect id="Rectangle_145" data-name="Rectangle 145" width="115.415" height="6.502" transform="translate(597.024 418.448)" fill="#e8eaf1"/>
    <rect id="Rectangle_146" data-name="Rectangle 146" width="115.415" height="6.502" transform="translate(597.024 432.265)" fill="#e8eaf1"/>
    <path id="Path_220" data-name="Path 220" d="M1053.917,764.89s.959,14.11,2.568,15.719-14.435,2.568-14.435,2.568l2.243-18.288Z" transform="translate(-276.041 -208.7)" fill="#ffb9b9"/>
    <path id="Path_221" data-name="Path 221" d="M1053.917,764.89s.959,14.11,2.568,15.719-14.435,2.568-14.435,2.568l2.243-18.288Z" transform="translate(-276.041 -208.7)" opacity="0.05"/>
    <path id="Path_222" data-name="Path 222" d="M1052.135,777.275s-2.243,0-10.266,4.17c0,0-5.454-.959-7.7-8.664,0,0-6.738,11.55-11.225,12.192s-13.151,1.284-7.38,8.981,39.778,4.17,39.778,4.17S1056.3,779.518,1052.135,777.275Z" transform="translate(-270.724 -210.177)" fill="#e4e2f3"/>
    <path id="Path_223" data-name="Path 223" d="M1052.135,777.275s-2.243,0-10.266,4.17c0,0-5.454-.959-7.7-8.664,0,0-6.738,11.55-11.225,12.192s-13.151,1.284-7.38,8.981,39.778,4.17,39.778,4.17S1056.3,779.518,1052.135,777.275Z" transform="translate(-270.724 -210.177)" opacity="0.05"/>
    <path id="Path_224" data-name="Path 224" d="M1051.155,789.032l-2.243,6.1-14.752-4.17.813-6.047.2-1.463.561-4.064s12.509-3.21,12.509-1.625a24.883,24.883,0,0,0,.813,3.909c.512,1.975,1.154,4.218,1.626,5.689C1050.96,788.39,1051.155,789.032,1051.155,789.032Z" transform="translate(-274.563 -211.027)" fill="#ffb9b9"/>
    <path id="Path_225" data-name="Path 225" d="M1041.207,671.35a8.77,8.77,0,0,0,0,8.941,15.541,15.541,0,0,0,2.308,3.194c7.055,7.7,8.981,25.017,8.981,25.017v27.9l-4.812.366-7.7.593-11.55-47.475s-6.738-34.641-3.527-40.737,6.1-44.264,6.1-44.264l2.666-2.755,6.315-6.543h18.288a12.3,12.3,0,0,1,3.56,3.975c3.072,5.08,5.828,15.646-2.593,35.153-13.151,30.471-17,35.283-17,35.283a7.389,7.389,0,0,0-1.032,1.349Z" transform="translate(-272.669 -177.004)" fill="#272626"/>
    <path id="Path_227" data-name="Path 227" d="M1049.331,781.709l-13.891,1.739.561-4.064s12.509-3.21,12.509-1.625A24.883,24.883,0,0,0,1049.331,781.709Z" transform="translate(-274.803 -211.027)" opacity="0.1"/>
    <path id="Path_228" data-name="Path 228" d="M1036.116,629.126s.813,25.253.927,41.119v8.941a19.791,19.791,0,0,1-.26,3.519c-.959,2.885.959,9.3.959,9.3a92.585,92.585,0,0,1,5.771,39.778v14.11l-15.394,1.926s2.568-1.926-4.495-20.531a81.084,81.084,0,0,1-4.95-28.139,30.115,30.115,0,0,0-2.251-11.135,13.736,13.736,0,0,1-.813-3.706,73.622,73.622,0,0,0-3.528-14.435s-7.7-22.758-9.623-39.453a91.847,91.847,0,0,1,.447-23.863,59.544,59.544,0,0,1,1.154-5.966s31.357-19.734,43.2-6.1a15.445,15.445,0,0,1,2.674,4.495,29.638,29.638,0,0,1,1.512,5C1055.127,622.071,1036.116,629.126,1036.116,629.126Z" transform="translate(-268.521 -175.899)" fill="#272626"/>
    <circle id="Ellipse_47" data-name="Ellipse 47" cx="16.361" cy="16.361" r="16.361" transform="translate(750.282 280.014)" fill="#ffb9b9"/>
    <path id="Path_229" data-name="Path 229" d="M1031.541,455.551s6.738,18.922,0,28.87,21.49,6.738,21.49,6.738l10.908-13.151s-12.834,0-13.476-22.457S1031.541,455.551,1031.541,455.551Z" transform="translate(-273.879 -148.918)" fill="#ffb9b9"/>
    <path id="Path_230" data-name="Path 230" d="M1058.812,602.18a42.1,42.1,0,0,1-7.144,1.788c-3.991.618-8.7.642-11.46-1.788-1.625-1.439-5.689-1.626-10.493-1.154-10.184.975-23.961,4.771-26.594,5.519a59.6,59.6,0,0,1,1.154-5.966s31.357-19.734,43.2-6.1h6.844a12.3,12.3,0,0,1,3.56,3.975C1058.471,601.01,1058.812,602.18,1058.812,602.18Z" transform="translate(-268.752 -175.898)" opacity="0.1"/>
    <path id="Path_231" data-name="Path 231" d="M1051.155,790.781l-2.243,6.1-14.752-4.17.813-6.047c2.536,5.608,6.86,6.372,6.86,6.372a52.329,52.329,0,0,1,8.827-3.869C1050.96,790.139,1051.155,790.781,1051.155,790.781Z" transform="translate(-274.563 -212.775)" opacity="0.1"/>
    <path id="Path_232" data-name="Path 232" d="M1047.385,788.725s-2.243,0-10.265,4.17c0,0-5.454-.959-7.7-8.664,0,0-6.738,11.55-11.225,12.192s-13.151,1.284-7.38,8.981,39.778,4.17,39.778,4.17S1051.555,790.968,1047.385,788.725Z" transform="translate(-269.834 -212.321)" fill="#e4e2f3"/>
    <path id="Path_233" data-name="Path 233" d="M962.62,446.464s.626-12.492,13.752-11.273a2.243,2.243,0,0,1,1.772,3.251l-2.69,5.064Z" transform="translate(-261.17 -146.959)" fill="#ffb9b9"/>
    <path id="Path_234" data-name="Path 234" d="M1038.417,481.147s-15.719-2.568-19.889-5.771c0,0-3.21,6.1-8.981,2.885s-19.247-2.885-19.247-2.885a29.089,29.089,0,0,1-13.476-19.889s-2.243-8.339-1.626-10.566c0,0-8.339-8.664-12.509,2.885,1.626,8.022,2.885,7.38,2.568,13.817l5.129,14.11s.317,4.812,9.623,11.225A205.77,205.77,0,0,1,999.9,503.32s-5.616,3.048-3.528,17c2.552,17.068-1.284,41.379-1.284,41.379v15.719s32.081-9.3,37.526-4.495,18.6,0,18.6,0a179.183,179.183,0,0,1-3.853-18.6,81.544,81.544,0,0,1,.317-26.009s8.339-22.132,12.192-31.113-2.885-21.132-9.623-25.66-9.241-1.8-9.241-1.8S1052.852,478.262,1038.417,481.147Z" transform="translate(-261.183 -148.212)" fill="#797c9c"/>
    <path id="Path_235" data-name="Path 235" d="M1005.15,546.523s2.56-.618,15.386-2.544,35.283,2.568,35.283,2.568" transform="translate(-269.132 -167.252)" opacity="0.05"/>
    <path id="Path_236" data-name="Path 236" d="M1018.642,428.36c7.315.154,12.728,9.176,9.485,15.687-1.422,2.861-4.178,5.381-3.893,8.559.13,1.447.9,2.755,1.235,4.17,1.536,6.5-6.242,12.59-4.462,19.011a13.728,13.728,0,0,0,2.78,4.657l13.508,17.02a12.785,12.785,0,0,1,2.016,3.121,13.164,13.164,0,0,1,.585,5c-.065,8.128.463,16.849,5.259,23.441,5.763,7.917,17.508,10.761,26.245,6.348-2.1-3.178-4.283-6.9-3.251-10.566,1.195-4.153,5.925-6.071,8.656-9.42,3.3-4.064,3.381-9.835,2.438-14.963s-2.837-10.144-2.877-15.362c-.065-8.477,4.275-18.328-1.439-24.587-1.308-1.431-3.048-2.487-4.023-4.161a9.453,9.453,0,0,1-1.008-4.7c-.089-9.883,5.153-19.938,2.008-29.309a9.955,9.955,0,0,0-3.6-5.218c-4.454-3-10.631-.089-15.784-1.626-2.438-.707-4.446-2.349-6.827-3.154-6.421-2.17-12.362,2.186-16.8,6.364a51.175,51.175,0,0,1-5.86,4.422C1023.348,422.922,1015.8,428.3,1018.642,428.36Z" transform="translate(-271.538 -142.583)" opacity="0.1"/>
    <path id="Path_237" data-name="Path 237" d="M1019.642,428.36c7.315.154,12.728,9.176,9.485,15.687-1.422,2.861-4.178,5.381-3.893,8.559.13,1.447.9,2.755,1.235,4.17,1.536,6.5-6.242,12.59-4.462,19.011a13.726,13.726,0,0,0,2.78,4.657l13.508,17.02a12.785,12.785,0,0,1,2.016,3.121,13.159,13.159,0,0,1,.585,5c-.065,8.128.463,16.849,5.259,23.441,5.763,7.917,17.507,10.761,26.245,6.348-2.1-3.178-4.283-6.9-3.251-10.566,1.195-4.153,5.925-6.071,8.656-9.42,3.3-4.064,3.381-9.835,2.438-14.963s-2.837-10.144-2.877-15.362c-.065-8.477,4.275-18.328-1.439-24.587-1.309-1.431-3.048-2.487-4.023-4.161a9.455,9.455,0,0,1-1.008-4.7c-.089-9.883,5.153-19.938,2.007-29.309a9.957,9.957,0,0,0-3.6-5.218c-4.454-3-10.631-.089-15.784-1.626-2.438-.707-4.446-2.349-6.827-3.154-6.421-2.17-12.362,2.186-16.8,6.364a51.2,51.2,0,0,1-5.86,4.422C1024.348,422.922,1016.8,428.3,1019.642,428.36Z" transform="translate(-271.725 -142.583)" fill="#b36362"/>
    <path id="Path_238" data-name="Path 238" d="M699.307,585.212a28.19,28.19,0,0,1-4.8-5.893c-2.812-4.422-7.518-6.8-10.745-7.99v-1.439h.2l-.089-1.333h.089l-.228-3.527h0L682.58,547.41s-4.145-11.81,3.17-22.62.455-21.181-6.421-25.237c0,0-3.251-17.125-.455-21.181a118.062,118.062,0,0,0-11.542-5.876q-.089-.317-.171-.65c-.073-1.626-.171-3.194-.26-4.787a17.517,17.517,0,0,1,.455-2.438q.134-.5.293-1.024a17.581,17.581,0,0,0,11.225-16.3,17.263,17.263,0,0,0-1.089-6.047,7.7,7.7,0,0,0,.813-1.918,7.827,7.827,0,0,0-1.089-5.624c-1.821-4.064-6.413-7.778-9.753-9.136-4.771-1.951-11.956-1.487-16.922-.894-2.788.333-5.974,1.276-6.982,3.853a26.689,26.689,0,0,0-.634,2.967c-1.04,3.934-5.551,5.771-8.339,8.778-2.438,2.658-3.544,6.25-4.34,9.753a90.047,90.047,0,0,0-1.626,30.618c.285,2.357.658,4.7,1.057,7.039-1.674,2.357-3.186,6.5-2.5,13.817l-5.5,26.139-2.292,15.321a13.4,13.4,0,0,0,4.129,11.72c3.511,3.446,7.77,9.274,10.4,13.053a31.081,31.081,0,0,0-1.674,10.387c.057,1.626.146,3.162.26,4.641a41.319,41.319,0,0,0,1.756,9.185c.642,6.291,1.918,14.338,4.405,19.507l.918,27.488s-1.374,25.237-4.129,30.195,5.966,46.873,5.966,46.873v5.86l-1.471,4.291-.366-.276c-6.884,8.567,0,11.72,0,11.72s1.869.089,4.877.2a5.535,5.535,0,0,0,2.934,6.1s39.014,1.8,45.89,0,5.047-8.128,1.374-7.665a16.785,16.785,0,0,1-5.494-.723c2.146-2.512.431-5.917-2.3-5.584-3.674.447-11.932-2.82-11.932-2.82v.057a6.2,6.2,0,0,0-.813-.244,92.059,92.059,0,0,1-9.079-2.56c-1.772-3.8-5.852-14-2.926-21.945,1.325-3.576,1.756-8.339,1.756-12.956a147.992,147.992,0,0,1,6.039-41.111l5.5-18.913s7.8-22.986,8.258-29.26l-.065-9.2c6.454,4.153,11.574,2.893,14.85.967a3.536,3.536,0,0,0,.569-5.738ZM638.063,537.4c.154-.658.284-1.382.4-2.138h3.251a16.743,16.743,0,0,1,1.625,8.867C640.851,543.322,637.129,541.387,638.063,537.4Z" transform="translate(-196.94 -144.722)" fill="url(#linear-gradient-4)"/>
    <path id="Path_239" data-name="Path 239" d="M647.294,786.032l-1.764,5.3,5.738,5.738,18.987,4.413,13.687-1.325-.886-4.877h0a5.861,5.861,0,0,0-4.348-4.275c-5.625-1.325-16.353-4.332-18.613-8.526Z" transform="translate(-201.806 -211.993)" fill="#db8b8b"/>
    <path id="Path_240" data-name="Path 240" d="M647.294,786.032l-1.764,5.3,5.738,5.738,18.987,4.413,13.687-1.325-.886-4.877h0a5.861,5.861,0,0,0-4.348-4.275c-5.625-1.325-16.353-4.332-18.613-8.526Z" transform="translate(-201.806 -211.993)" opacity="0.1"/>
    <path id="Path_241" data-name="Path 241" d="M678.849,800.582l-2.65-3.536,2.65-4.064s7.949,3.21,11.477,2.763,5.3,5.738-1.325,7.51-44.159,0-44.159,0-6.624-3.089,0-11.477l5.738,4.413s9.753,5.3,14.573,4.413Z" transform="translate(-201.126 -213.734)" fill="#474463"/>
    <path id="Path_242" data-name="Path 242" d="M693.156,807.776,679.469,809.1l-18.97-4.446-5.738-5.69.471-1.406.658-1.967.642-1.926,12.8-3.536a7.933,7.933,0,0,0,2.593,2.6c4.161,2.845,11.631,4.877,16.012,5.925a4.6,4.6,0,0,1,.545.163,5.836,5.836,0,0,1,3.8,4.113Z" transform="translate(-203.534 -213.425)" fill="#db8b8b"/>
    <path id="Path_243" data-name="Path 243" d="M693.156,809.487l-13.687,1.325-18.97-4.446-5.738-5.69.471-1.406,5.275,4.064s9.753,5.3,14.573,4.413h13.687l-2.65-3.536,2.381-3.674a5.836,5.836,0,0,1,3.8,4.113Z" transform="translate(-203.534 -215.136)" opacity="0.1"/>
    <path id="Path_244" data-name="Path 244" d="M688.079,808.182l-2.65-3.536,2.65-4.064s7.949,3.211,11.477,2.763,5.3,5.738-1.325,7.51-44.159,0-44.159,0-6.624-3.089,0-11.477l5.738,4.413s9.753,5.3,14.573,4.413Z" transform="translate(-202.854 -215.157)" fill="#474463"/>
    <path id="Path_245" data-name="Path 245" d="M678.117,489.73s-21.2,2.211-18.1-6.624a15.9,15.9,0,0,0,.65-7.795,21.611,21.611,0,0,0-3.747-8.981l19.873,3.089a24.885,24.885,0,0,0-2.69,6.38C671.737,485.17,678.117,489.73,678.117,489.73Z" transform="translate(-203.938 -152.805)" fill="#db8b8b"/>
    <path id="Path_246" data-name="Path 246" d="M638.46,619s.439,18.987,4.877,28.261l.886,26.936s-1.325,24.725-3.974,29.585,5.738,45.922,5.738,45.922v7.063s14.11,5.283,18.109-.894l-3.975-52.547,1.764-72.858Z" transform="translate(-200.482 -181.387)" fill="#272626"/>
    <path id="Path_248" data-name="Path 248" d="M626.45,544l-2.65,7.063-2.211,15.012a13.281,13.281,0,0,0,3.975,11.477c5.3,5.3,12.362,16.337,12.362,16.337l8.388-25.2s-8.388-1.325-7.063-7.063.886-16.337.886-16.337Z" transform="translate(-197.299 -167.346)" fill="#cbcdda"/>
    <path id="Path_249" data-name="Path 249" d="M626.45,543l-2.65,7.063-2.211,15.012a13.281,13.281,0,0,0,3.975,11.477c5.3,5.3,12.362,16.337,12.362,16.337l8.388-25.2s-8.388-1.325-7.063-7.063.886-16.337.886-16.337Z" transform="translate(-197.299 -167.158)" opacity="0.05"/>
    <path id="Path_250" data-name="Path 250" d="M672.184,792.709c-5.69,8.941-14.476,3.861-16.044,2.853l.642-1.926,12.8-3.536A7.932,7.932,0,0,0,672.184,792.709Z" transform="translate(-203.792 -213.42)" opacity="0.1"/>
    <path id="Path_251" data-name="Path 251" d="M686.287,628.881c-.439,6.185-7.949,28.7-7.949,28.7l-5.291,18.531a147.447,147.447,0,0,0-5.82,40.314c0,4.519-.415,9.185-1.691,12.688-3.536,9.753,3.536,22.961,3.536,22.961-6.185,11.038-16.776,3.536-16.776,3.536v-7.063s-8.388-38.412-6.185-45.922S649.2,674.8,649.2,674.8V638.155a41.59,41.59,0,0,1-12.119-26.367c-.106-1.447-.187-2.967-.244-4.543-.358-9.965,6.453-21.644,9.111-25.806.642-1.008,1.04-1.569,1.04-1.569L686,595.313h.089v4.852Z" transform="translate(-200.176 -174.061)" fill="#272626"/>
    <path id="Path_252" data-name="Path 252" d="M676.8,469.419a24.89,24.89,0,0,0-2.69,6.38,17.28,17.28,0,0,1-13.435-.488,21.612,21.612,0,0,0-3.747-8.981Z" transform="translate(-203.94 -152.805)" opacity="0.1"/>
    <circle id="Ellipse_48" data-name="Ellipse 48" cx="17.223" cy="17.223" r="17.223" transform="translate(446.805 288.792)" fill="#db8b8b"/>
    <path id="Path_253" data-name="Path 253" d="M688.018,600.181h-.187c-18.515,3.8-41.761-15.492-41.761-15.492a22.89,22.89,0,0,0,1.626-3.251c.642-1.008,1.04-1.569,1.04-1.569l39.014,15.443.1,1.544Z" transform="translate(-201.907 -174.061)" opacity="0.1"/>
    <path id="Path_254" data-name="Path 254" d="M679.089,492.191s-24.725-15.012-32.674-8.835l-11.038,14.126s-7.063,2.211-5.738,16.337l-5.3,25.611,15.9,3.975s9.274,8.835,1.764,21.636c0,0,23.4,19.426,41.948,15.443l-1.365-20.734s-3.975-11.477,3.089-22.075.439-20.75-6.185-24.725C679.536,512.95,676.439,496.166,679.089,492.191Z" transform="translate(-197.839 -155.713)" fill="#cbcdda"/>
    <path id="Path_255" data-name="Path 255" d="M692.286,605.4s9.274,1.764,13.687,8.835a27.521,27.521,0,0,0,4.625,5.771,3.5,3.5,0,0,1-.545,5.584c-3.5,2.105-9.217,3.406-16.434-2.528C681.248,612.91,692.286,605.4,692.286,605.4Z" transform="translate(-209.71 -178.841)" fill="#db8b8b"/>
    <path id="Path_256" data-name="Path 256" d="M672.521,504.823s-8.835-.886-11.038,22.075-5.738,28.26-5.738,28.26-2.211,11.924,3.089,18.987,15.443,22.075,15.443,22.075,11.038,3.089,13.248-7.949l-13.687-25.611s-2.211-8.835,3.089-15.012S686.208,500.4,672.521,504.823Z" transform="translate(-203.632 -159.949)" opacity="0.1"/>
    <path id="Path_257" data-name="Path 257" d="M673.611,503.194s-8.835-.886-11.038,22.075-5.738,28.26-5.738,28.26-2.211,11.924,3.089,18.987,15.443,22.075,15.443,22.075,11.038,3.089,13.248-7.949l-13.687-25.611s-2.2-8.827,3.089-14.98S687.3,498.772,673.611,503.194Z" transform="translate(-203.836 -159.644)" fill="#cbcdda"/>
    <path id="Path_258" data-name="Path 258" d="M685.142,523.64s.886,13.687-3.089,21.2-3.975,17.223,0,22.522" transform="translate(-208.085 -163.534)" opacity="0.1"/>
    <path id="Path_259" data-name="Path 259" d="M682.751,501.27s-3.536-3.536-13.687-3.975-14.573-3.536-14.573-3.536" transform="translate(-203.483 -157.94)" opacity="0.1"/>
    <path id="Path_260" data-name="Path 260" d="M652.637,429.594c-2.682.333-5.746,1.252-6.714,3.771a26.594,26.594,0,0,0-.61,2.91c-1,3.861-5.34,5.689-8.022,8.6-2.365,2.6-3.406,6.12-4.178,9.558a89.8,89.8,0,0,0-1.552,30c.862,7.315,2.625,14.533,3.113,21.888s-.406,15.093-4.43,21.271c-1.731,2.658-4.007,4.991-5.234,7.917,2.536,2.056,6.023,2.349,9.29,2.438q5.689.2,11.379,0a12.146,12.146,0,0,0,5.8-1.2,8.94,8.94,0,0,0,3.04-3.251c2.17-3.69,2.723-8.128,2.625-12.4s-.772-8.526-.813-12.809c-.041-2.333.138-4.8,1.479-6.714a21.463,21.463,0,0,1,3.7-3.422c4.73-4.186,6.348-10.908,6.5-17.223s-.886-12.639-.349-18.93c.211-2.438,1.13-5.421,3.552-5.9a13.669,13.669,0,0,0,2.308-.293c1.943-.748,1.756-3.487,2.308-5.494.626-2.251,2.544-3.991,3.089-6.267,1.268-5.34-5.527-11.72-9.981-13.582C664.357,428.553,657.448,429.017,652.637,429.594Z" transform="translate(-197.964 -145.833)" opacity="0.1"/>
    <path id="Path_261" data-name="Path 261" d="M652.137,428.5c-2.682.333-5.746,1.252-6.714,3.771a26.576,26.576,0,0,0-.609,2.91c-1,3.861-5.34,5.689-8.022,8.6-2.365,2.6-3.406,6.12-4.178,9.558a89.8,89.8,0,0,0-1.552,30c.862,7.315,2.625,14.533,3.113,21.888s-.406,15.093-4.43,21.271c-1.731,2.658-4.007,4.99-5.234,7.917,2.536,2.056,6.023,2.349,9.29,2.438q5.689.2,11.379,0a12.147,12.147,0,0,0,5.8-1.2,8.941,8.941,0,0,0,3.04-3.251c2.17-3.69,2.723-8.128,2.625-12.395s-.772-8.526-.813-12.809c-.041-2.333.138-4.8,1.479-6.714a21.463,21.463,0,0,1,3.7-3.422c4.73-4.186,6.348-10.908,6.5-17.223s-.886-12.639-.349-18.93c.211-2.438,1.13-5.421,3.552-5.9a13.666,13.666,0,0,0,2.308-.293c1.943-.748,1.756-3.487,2.308-5.494.626-2.251,2.544-3.991,3.089-6.267,1.268-5.34-5.527-11.72-9.981-13.582C663.824,427.463,656.916,427.918,652.137,428.5Z" transform="translate(-197.87 -145.628)" fill="#472727"/>
  </g>
</svg>
