<svg xmlns="http://www.w3.org/2000/svg" width="21.958" height="21.958" viewBox="0 0 21.958 21.958">
  <g id="iconfinder_whatsapp-social-media_765205" transform="translate(0)">
    <g id="whatsapp" transform="translate(0 0)">
      <path id="Path_118" data-name="Path 118" d="M11.332,22.238a10.8,10.8,0,0,1-5.211-1.331L.154,22.8,2.1,17.065A10.587,10.587,0,0,1,.553,11.542a10.78,10.78,0,1,1,10.78,10.7Zm0-19.689A9.038,9.038,0,0,0,2.27,11.542,8.9,8.9,0,0,0,4,16.815l-1.132,3.34,3.483-1.107a9.017,9.017,0,1,0,4.986-16.5Zm5.443,11.456c-.066-.109-.243-.175-.506-.306s-1.564-.766-1.806-.853-.419-.131-.595.131-.682.853-.837,1.028-.308.2-.572.066a7.229,7.229,0,0,1-2.125-1.3,7.9,7.9,0,0,1-1.47-1.815c-.154-.262-.016-.4.116-.535s.264-.306.4-.459a1.772,1.772,0,0,0,.264-.437.479.479,0,0,0-.022-.459c-.066-.131-.595-1.421-.815-1.946s-.44-.437-.594-.437-.33-.022-.506-.022a.975.975,0,0,0-.7.328,2.932,2.932,0,0,0-.924,2.187,5.073,5.073,0,0,0,1.079,2.711,10.8,10.8,0,0,0,4.513,3.958c2.687,1.05,2.687.7,3.171.656a2.671,2.671,0,0,0,1.783-1.246,2.185,2.185,0,0,0,.154-1.247Z" transform="translate(-0.154 -0.846)" fill="#e97526" fill-rule="evenodd"/>
    </g>
  </g>
</svg>
