<svg xmlns="http://www.w3.org/2000/svg" width="20.698" height="34.339" viewBox="0 0 20.698 34.339">
  <g id="iconfinder_Intsagram_194923" transform="translate(0 0)">
    <g id="Intsagram" transform="translate(0 0)">
      <path id="Oval-1" d="M24.349,47.839Zm0-2.822Zm10.3-11.751c.018-.1.031-.194.046-.29V15.663c-.014-.095-.027-.19-.045-.285a2.282,2.282,0,0,0-1.886-1.857c-.039-.005-.077-.014-.116-.021H16.046c-.1.019-.2.033-.3.057a2.3,2.3,0,0,0-1.726,1.962c-.005.04-.013.081-.02.121V33c.019.11.034.221.058.33a2.279,2.279,0,0,0,1.879,1.786c.044.006.088.014.132.022h16.56c.108-.019.215-.035.322-.059A2.3,2.3,0,0,0,34.652,33.266ZM16.239,31.939a.857.857,0,0,0,.822.857H31.632a.856.856,0,0,0,.824-.859q0-4.8,0-9.595v-.066H30.481a7.057,7.057,0,0,1,.255,2.847,6.817,6.817,0,0,1-.893,2.7,6.58,6.58,0,0,1-1.886,2.069,6.2,6.2,0,0,1-6.748.3,6.439,6.439,0,0,1-2.5-2.633,6.991,6.991,0,0,1-.5-5.285h-1.97v.058Q16.239,27.135,16.239,31.939ZM24.253,28.7a4.391,4.391,0,1,0-4.1-4.449A4.292,4.292,0,0,0,24.253,28.7Zm8.2-10.515q0-1.025,0-2.05a.855.855,0,0,0-.839-.88H29.662a.858.858,0,0,0-.839.881c0,.677,0,1.354,0,2.032a1.023,1.023,0,0,0,.05.3.836.836,0,0,0,.82.584h.944c.34,0,.682,0,1.023-.006A.851.851,0,0,0,32.456,18.187Zm0,0" transform="translate(-14 -13.5)" fill="#e97526" fill-rule="evenodd"/>
    </g>
  </g>
</svg>
