<svg id="iconfinder_twitter-social-media_765208" xmlns="http://www.w3.org/2000/svg" width="23.897" height="20.484" viewBox="0 0 23.897 20.484">
  <g id="twitter" transform="translate(0 0)">
    <path id="Path_110" data-name="Path 110" d="M20.97,1.842A4.875,4.875,0,0,0,17.391.155a4.954,4.954,0,0,0-4.9,5.11,5.52,5.52,0,0,0,.127,1.185A13.82,13.82,0,0,1,2.51.865a5.423,5.423,0,0,0-.664,2.622A5.4,5.4,0,0,0,4.027,7.867a4.686,4.686,0,0,1-2.221-.678c0,.022,0,.044,0,.066a5.208,5.208,0,0,0,3.933,5.161,4.615,4.615,0,0,1-2.214.075A4.982,4.982,0,0,0,8.1,16.139a9.463,9.463,0,0,1-6.089,2.218,9.341,9.341,0,0,1-1.17-.076,13.23,13.23,0,0,0,7.516,2.356c9.018,0,13.95-7.846,13.95-14.653q0-.335-.014-.667a10.084,10.084,0,0,0,2.446-2.631,9.357,9.357,0,0,1-2.816.77A5.027,5.027,0,0,0,24.084.642,9.413,9.413,0,0,1,20.97,1.842Z" transform="translate(-0.846 -0.154)" fill="#e97526" fill-rule="evenodd"/>
  </g>
</svg>
